<?xml version="1.0" encoding="UTF-8"?>
<!-- Generator: Adobe Illustrator 27.8.1, SVG Export Plug-In . SVG Version: 6.00 Build 0)  -->
<svg xmlns="http://www.w3.org/2000/svg" xmlns:xlink="http://www.w3.org/1999/xlink" version="1.1" id="Layer_1" x="0px" y="0px" viewBox="0 0 770.3 127" style="enable-background:new 0 0 770.3 127;" xml:space="preserve">
<style type="text/css">
	.st0{fill:#0069DE;}
</style>
<g>
	<g>
		<path class="st0" d="M99,16.8c0.7-1.1,1.7-1.6,2.8-1.6h22.5c1.6,0,2.3,0.8,2.3,2.3v94.2c0,1.6-0.8,2.3-2.3,2.3h-17.4    c-1.6,0-2.3-0.8-2.3-2.3V53.6l-32,52.5c-0.5,0.8-1,1.2-1.7,1.2c-0.7,0-1.2-0.4-1.7-1.2l-32-52.5v58.1c0,1.6-0.8,2.3-2.3,2.3H17.5    c-1.6,0-2.3-0.8-2.3-2.3V17.5c0-1.6,0.8-2.3,2.3-2.3H40c1.1,0,2,0.6,2.8,1.6l28.1,50L99,16.8z"></path>
		<path class="st0" d="M175.9,114.3c-19,0-32.9-5.6-41.8-16.8c-0.9-1.2-0.9-2.3,0.1-3.3l12.1-11.7c1.1-1.1,2.2-0.9,3.3,0.6    c5.1,8.2,13.9,12.3,26.2,12.3c11.6,0,17.4-3.4,17.4-10.3c0-3.5-1.5-6-4.5-7.6c-3-1.6-8.3-2.8-16.1-3.7    c-23.6-2.9-35.4-12.9-35.4-29.8c0-8.9,3.2-16,9.5-21.2s15.3-7.9,26.9-7.9c15.2,0,27.1,4.6,36,13.8c1,1.2,1,2.3-0.1,3.3l-11.7,11    c-1.1,1.1-2.2,1.1-3.3-0.1c-5.2-6-12.4-9-21.6-9c-4.7,0-8.4,0.8-11,2.3c-2.7,1.5-4,3.7-4,6.5c0,3,1.5,5.3,4.5,6.8    c3,1.5,8.3,2.6,16.1,3.4c11.6,1.2,20.4,4.1,26.4,8.6c6,4.5,9,11.5,9,21c0,10.5-3.4,18.4-10.2,23.8    C196.8,111.6,187.6,114.3,175.9,114.3z"></path>
		<path class="st0" d="M282.5,62.5c11.6,3.8,17.4,11.3,17.4,22.6c0,8.5-3,16.4-9.1,21.3s-14.3,7.4-24.7,7.4h-42.4    c-1.6,0-2.3-0.8-2.3-2.3V17.5c0-1.6,0.8-2.3,2.3-2.3h38c9.9,0,17.7,2.1,23.3,6.3s8.4,12.7,8.4,20.4    C293.4,51.1,289.7,58,282.5,62.5z M270.8,46.8c0-5.7-3.9-11.1-11.6-11.1h-15.9v21.1h15.9c3.8,0,6.6-0.9,8.6-2.6    C269.8,52.4,270.8,49.9,270.8,46.8z M265,92.3c3.9,0,6.9-0.8,9-2.6c2.2-1.7,3.2-4.2,3.2-7.4c0-6.5-4.1-9.8-12.3-9.8h-21.6v19.7    H265z"></path>
		<path class="st0" d="M378.4,15.1c14.7,0,26.6,4.4,35.6,13.2s13.6,22.8,13.6,36.8c0,14.2-4.5,26.6-13.6,35.4    c-9,8.8-20.9,13.2-35.6,13.2h-39.5c-1.6,0-2.3-0.8-2.3-2.3v-94c0-1.6,0.8-2.3,2.3-2.3C338.9,15.1,378.4,15.1,378.4,15.1z     M376.8,92.3c8.5,0,15.3-2.4,20.3-7.2c5-4.8,7.5-11.5,7.5-19.9c0-8.2-2.5-17.3-7.6-22.2s-11.8-7.3-20.3-7.3h-18.2v56.6L376.8,92.3    L376.8,92.3z"></path>
		<path class="st0" d="M485.7,114.2c-14.2,0-26.3-4.8-36.1-14.4s-14.7-21.6-14.7-35.9c0-13.6,4.9-25.2,14.8-34.8    c9.9-9.6,21.9-14.4,36-14.4c14.1,0,26,4.8,36,14.4c9.9,9.6,14.9,21.2,14.9,34.8c0,14.3-4.9,26.3-14.8,35.9    C511.9,109.4,499.9,114.2,485.7,114.2z M485.7,92.8c8.3,0,15-2.7,20.3-8.1c5.3-5.4,7.9-12.3,7.9-20.8c0-7.8-2.7-14.4-8-19.8    c-5.3-5.4-12.1-8.1-20.3-8.1c-8.1,0-14.8,2.7-20.2,8.1c-5.4,5.4-8.1,12-8.1,19.7c0,8.4,2.7,15.4,8,20.8S477.5,92.8,485.7,92.8z"></path>
		<path class="st0" d="M633.9,90.9c1.2,1,1.3,2.1,0.4,3.2c-4.8,6.3-10.8,11.3-18,14.8c-7.2,3.5-15,5.3-23.4,5.3    c-14.3,0-26.3-4.8-35.8-14.3c-9.5-9.5-14.3-21.5-14.3-35.9c0-13.8,4.8-25.5,14.4-35c9.6-9.5,21.5-14.3,35.8-14.3    c16.9,0,30,5.4,39.1,16.1c1,1.1,1,2.2-0.1,3.3l-13.5,12c-1.1,1-2.2,0.9-3.3-0.3c-5-6.5-12.5-9.8-22.2-9.8    c-7.6,0-14.1,2.7-19.3,8.2s-7.8,12.1-7.8,19.9c0,8.3,2.6,15.1,7.8,20.5s11.7,8.1,19.4,8.1c10.4,0,18.4-4.1,24-12.4    c0.9-1.6,2-1.8,3.2-0.7L633.9,90.9z"></path>
		<path class="st0" d="M684.2,114.2c-19,0-32.9-5.6-41.8-16.8c-0.9-1.2-0.9-2.3,0.1-3.3l12.1-11.7c1.1-1.1,2.2-0.9,3.3,0.6    c5.1,8.2,13.9,12.3,26.2,12.3c11.6,0,17.4-3.4,17.4-10.3c0-3.5-1.5-6-4.5-7.6c-3-1.6-8.3-2.8-16-3.7    c-23.6-2.9-35.4-12.9-35.4-29.8c0-8.9,3.2-16,9.5-21.2s15.3-7.9,26.9-7.9c15.2,0,27.2,4.6,36,13.8c1,1.2,1,2.3-0.1,3.3l-11.7,11    c-1.1,1.1-2.2,1.1-3.3-0.1c-5.2-6-12.5-9-21.6-9c-4.7,0-8.4,0.8-11,2.3c-2.7,1.5-4,3.7-4,6.5c0,3,1.5,5.3,4.5,6.8s8.3,2.6,16,3.4    c11.6,1.2,20.4,4.1,26.4,8.6c6,4.5,9,11.5,9,21c0,10.5-3.4,18.4-10.2,23.8C705.1,111.5,695.8,114.2,684.2,114.2z"></path>
	</g>
	<g>
		<path class="st0" d="M737.4,14.7c0.3,0,0.4,0.1,0.4,0.4V18c0,0.3-0.1,0.4-0.4,0.4h-4.5v12.9c0,0.3-0.1,0.4-0.4,0.4h-3.1    c-0.3,0-0.4-0.1-0.4-0.4V18.4h-4.5c-0.3,0-0.4-0.1-0.4-0.4v-2.8c0-0.3,0.1-0.4,0.4-0.4C724.5,14.7,737.4,14.7,737.4,14.7z"></path>
		<path class="st0" d="M755.2,15c0.1-0.2,0.3-0.3,0.5-0.3h4c0.3,0,0.4,0.1,0.4,0.4v16.2c0,0.3-0.1,0.4-0.4,0.4h-3.1    c-0.3,0-0.4-0.1-0.4-0.4V21.1l-5.7,9.4c-0.1,0.1-0.2,0.2-0.3,0.2s-0.2-0.1-0.3-0.2l-5.7-9.4v10.2c0,0.3-0.1,0.4-0.4,0.4h-3.1    c-0.3,0-0.4-0.1-0.4-0.4V15.1c0-0.3,0.1-0.4,0.4-0.4h4c0.2,0,0.4,0.1,0.5,0.3l5,8.5L755.2,15z"></path>
	</g>
</g>
</svg>
